<svg xmlns="http://www.w3.org/2000/svg" viewBox="0 0 32 32">
  <!--
    Caelan Gander monogram — vectorized Calibri Regular.
    Construction: capital C rotated 90° wraps over lowercase g.
    Glyph outlines extracted from Calibri via fontTools; no runtime
    font dependency. Tailwind green-700 (#15803D) on transparent.
  -->
  <g transform="translate(-5.272 -11.148) scale(1.4835)">
    <path fill="#15803D" d="M20.576171875 14.0234375Q20.576171875 14.3994140625 20.47412109375 14.56591796875Q20.3720703125 14.732421875 20.2109375 14.732421875H18.8251953125Q19.201171875 15.119140625 19.3515625 15.58642578125Q19.501953125 16.0537109375 19.501953125 16.55859375Q19.501953125 17.396484375 19.2333984375 18.041015625Q18.96484375 18.685546875 18.46533203125 19.13134765625Q17.9658203125 19.5771484375 17.2783203125 19.8134765625Q16.5908203125 20.0498046875 15.7529296875 20.0498046875Q15.162109375 20.0498046875 14.63037109375 19.89404296875Q14.0986328125 19.73828125 13.80859375 19.501953125Q13.615234375 19.6953125 13.49169921875 19.9423828125Q13.3681640625 20.189453125 13.3681640625 20.51171875Q13.3681640625 20.8876953125 13.71728515625 21.134765625Q14.06640625 21.3818359375 14.646484375 21.4033203125L17.1708984375 21.5107421875Q17.890625 21.5322265625 18.4921875 21.70947265625Q19.09375 21.88671875 19.5341796875 22.21435546875Q19.974609375 22.5419921875 20.2216796875 23.02001953125Q20.46875 23.498046875 20.46875 24.1318359375Q20.46875 24.7978515625 20.189453125 25.3994140625Q19.91015625 26.0009765625 19.33544921875 26.45751953125Q18.7607421875 26.9140625 17.869140625 27.17724609375Q16.9775390625 27.4404296875 15.763671875 27.4404296875Q14.5927734375 27.4404296875 13.77099609375 27.24169921875Q12.94921875 27.04296875 12.4228515625 26.69921875Q11.896484375 26.35546875 11.66015625 25.87744140625Q11.423828125 25.3994140625 11.423828125 24.8408203125Q11.423828125 24.486328125 11.509765625 24.1533203125Q11.595703125 23.8203125 11.77294921875 23.51953125Q11.9501953125 23.21875 12.21337890625 22.94482421875Q12.4765625 22.6708984375 12.8203125 22.40234375Q12.2939453125 22.1337890625 12.04150390625 21.7255859375Q11.7890625 21.3173828125 11.7890625 20.8447265625Q11.7890625 20.189453125 12.0576171875 19.673828125Q12.326171875 19.158203125 12.7236328125 18.75Q12.390625 18.3525390625 12.197265625 17.85302734375Q12.00390625 17.353515625 12.00390625 16.64453125Q12.00390625 15.8173828125 12.283203125 15.162109375Q12.5625 14.5068359375 13.056640625 14.0556640625Q13.55078125 13.6044921875 14.24365234375 13.36279296875Q14.9365234375 13.12109375 15.7529296875 13.12109375Q16.193359375 13.12109375 16.57470703125 13.16943359375Q16.9560546875 13.2177734375 17.2890625 13.3037109375H20.2109375Q20.3935546875 13.3037109375 20.48486328125 13.48095703125Q20.576171875 13.658203125 20.576171875 14.0234375ZM17.8046875 16.5693359375Q17.8046875 15.5810546875 17.26220703125 15.02783203125Q16.7197265625 14.474609375 15.720703125 14.474609375Q15.205078125 14.474609375 14.82373046875 14.646484375Q14.4423828125 14.818359375 14.18994140625 15.119140625Q13.9375 15.419921875 13.81396484375 15.81201171875Q13.6904296875 16.2041015625 13.6904296875 16.6337890625Q13.6904296875 17.58984375 14.23291015625 18.1376953125Q14.775390625 18.685546875 15.7529296875 18.685546875Q16.279296875 18.685546875 16.666015625 18.51904296875Q17.052734375 18.3525390625 17.30517578125 18.05712890625Q17.5576171875 17.76171875 17.68115234375 17.375Q17.8046875 16.98828125 17.8046875 16.5693359375ZM18.6962890625 24.228515625Q18.6962890625 23.60546875 18.18603515625 23.26708984375Q17.67578125 22.9287109375 16.8056640625 22.9072265625L14.302734375 22.8212890625Q13.958984375 23.08984375 13.73876953125 23.33154296875Q13.5185546875 23.5732421875 13.3896484375 23.79345703125Q13.2607421875 24.013671875 13.21240234375 24.228515625Q13.1640625 24.443359375 13.1640625 24.6689453125Q13.1640625 25.3671875 13.873046875 25.72705078125Q14.58203125 26.0869140625 15.849609375 26.0869140625Q16.6552734375 26.0869140625 17.19775390625 25.93115234375Q17.740234375 25.775390625 18.0732421875 25.517578125Q18.40625 25.259765625 18.55126953125 24.9267578125Q18.6962890625 24.59375 18.6962890625 24.228515625Z"/>
    <g transform="rotate(90 16 14)">
      <path fill="#15803D" d="M21.04345703125 19.5537109375Q21.04345703125 19.7255859375 21.03271484375 19.8544921875Q21.02197265625 19.9833984375 20.9951171875 20.080078125Q20.96826171875 20.1767578125 20.92529296875 20.251953125Q20.88232421875 20.3271484375 20.77490234375 20.4345703125Q20.66748046875 20.5419921875 20.32373046875 20.76220703125Q19.97998046875 20.982421875 19.4697265625 21.19189453125Q18.95947265625 21.4013671875 18.298828125 21.54638671875Q17.63818359375 21.69140625 16.85400390625 21.69140625Q15.50048828125 21.69140625 14.41015625 21.240234375Q13.31982421875 20.7890625 12.5517578125 19.908203125Q11.78369140625 19.02734375 11.3701171875 17.73291015625Q10.95654296875 16.4384765625 10.95654296875 14.751953125Q10.95654296875 13.0224609375 11.40234375 11.6689453125Q11.84814453125 10.3154296875 12.65380859375 9.37548828125Q13.45947265625 8.435546875 14.58203125 7.94140625Q15.70458984375 7.447265625 17.06884765625 7.447265625Q17.67041015625 7.447265625 18.23974609375 7.56005859375Q18.80908203125 7.6728515625 19.29248046875 7.8447265625Q19.77587890625 8.0166015625 20.15185546875 8.2421875Q20.52783203125 8.4677734375 20.6728515625 8.61279296875Q20.81787109375 8.7578125 20.86083984375 8.8330078125Q20.90380859375 8.908203125 20.9306640625 9.01025390625Q20.95751953125 9.1123046875 20.9736328125 9.251953125Q20.98974609375 9.3916015625 20.98974609375 9.5849609375Q20.98974609375 9.7998046875 20.96826171875 9.9501953125Q20.94677734375 10.1005859375 20.90380859375 10.20263671875Q20.86083984375 10.3046875 20.8017578125 10.35302734375Q20.74267578125 10.4013671875 20.65673828125 10.4013671875Q20.50634765625 10.4013671875 20.23779296875 10.19189453125Q19.96923828125 9.982421875 19.544921875 9.72998046875Q19.12060546875 9.4775390625 18.513671875 9.26806640625Q17.90673828125 9.05859375 17.05810546875 9.05859375Q16.13427734375 9.05859375 15.376953125 9.42919921875Q14.61962890625 9.7998046875 14.08251953125 10.51953125Q13.54541015625 11.2392578125 13.25 12.27587890625Q12.95458984375 13.3125 12.95458984375 14.64453125Q12.95458984375 15.9658203125 13.2392578125 16.98095703125Q13.52392578125 17.99609375 14.0556640625 18.67822265625Q14.58740234375 19.3603515625 15.36083984375 19.70947265625Q16.13427734375 20.05859375 17.11181640625 20.05859375Q17.93896484375 20.05859375 18.556640625 19.8544921875Q19.17431640625 19.650390625 19.609375 19.39794921875Q20.04443359375 19.1455078125 20.32373046875 18.94140625Q20.60302734375 18.7373046875 20.76416015625 18.7373046875Q20.83935546875 18.7373046875 20.89306640625 18.76953125Q20.94677734375 18.8017578125 20.97900390625 18.89306640625Q21.01123046875 18.984375 21.02734375 19.1455078125Q21.04345703125 19.306640625 21.04345703125 19.5537109375Z"/>
    </g>
  </g>
</svg>
